<?xml version="1.0" encoding="UTF-8"?>
<svg width="120px" height="40px" viewBox="0 0 120 40" version="1.1" xmlns="http://www.w3.org/2000/svg" xmlns:xlink="http://www.w3.org/1999/xlink">
    <!-- Generator: Sketch 51.3 (57544) - http://www.bohemiancoding.com/sketch -->
    <title>Group 4</title>
    <desc>Created with Sketch.</desc>
    <defs></defs>
    <g id="Page-1" stroke="none" stroke-width="1" fill="none" fill-rule="evenodd">
        <g id="Group-4">
            <path d="M7,39.8860399 L113,39.8860399 C116.865993,39.8860399 120,36.7520331 120,32.8860399 L120,7 C120,3.13400675 116.865993,2.85997164e-14 113,2.93098879e-14 L60,2.84217094e-14 L7,2.93098879e-14 C3.13400675,3.00200593e-14 4.14730794e-16,3.13400675 8.8817842e-16,7 L8.8817842e-16,32.8860399 C1.36162605e-15,36.7520331 3.13400675,39.8860399 7,39.8860399 Z" id="Fill-1" fill="#11110F"></path>
            <g id="Group" transform="translate(14.000000, 9.000000)" fill="#FFFFFE">
                <g id="Group-2" transform="translate(0.598291, 0.914530)">
                    <path d="M10.322735,0 C4.62239316,0 0,4.62136752 0,10.3225641 C0,14.8834188 2.95777778,18.7528205 7.05931624,20.1177778 C7.57521368,20.2133333 7.76461538,19.8938462 7.76461538,19.6211966 C7.76461538,19.3750427 7.75504274,18.5618803 7.75059829,17.6993162 C4.87880342,18.3237607 4.27282051,16.4813675 4.27282051,16.4813675 C3.80324786,15.2882051 3.12666667,14.9709402 3.12666667,14.9709402 C2.19008547,14.3302564 3.19726496,14.3434188 3.19726496,14.3434188 C4.23384615,14.4160684 4.77965812,15.4071795 4.77965812,15.4071795 C5.70034188,16.9852991 7.19452991,16.5290598 7.78358974,16.2652991 C7.87623932,15.5982906 8.14376068,15.1425641 8.43897436,14.8849573 C6.14615385,14.6239316 3.73589744,13.7388034 3.73589744,9.7834188 C3.73589744,8.65641026 4.1391453,7.73555556 4.79948718,7.01264957 C4.69230769,6.75247863 4.33897436,5.70273504 4.89948718,4.2808547 C4.89948718,4.2808547 5.76632479,4.0034188 7.73897436,5.33897436 C8.56239316,5.11025641 9.44547009,4.99555556 10.322735,4.99162393 C11.2,4.99555556 12.0837607,5.11025641 12.9087179,5.33897436 C14.8789744,4.0034188 15.7446154,4.2808547 15.7446154,4.2808547 C16.3064957,5.70273504 15.9529915,6.75247863 15.845812,7.01264957 C16.5076923,7.73555556 16.9082051,8.65641026 16.9082051,9.7834188 C16.9082051,13.7482051 14.4933333,14.6211966 12.1947009,14.8767521 C12.5649573,15.197094 12.8948718,15.8252991 12.8948718,16.7883761 C12.8948718,18.1694017 12.882906,19.2810256 12.882906,19.6211966 C12.882906,19.8958974 13.0687179,20.2177778 13.5919658,20.1164103 C17.6912821,18.7499145 20.6452991,14.8818803 20.6452991,10.3225641 C20.6452991,4.62136752 16.0235897,0 10.322735,0" id="Fill-52"></path>
                    <path d="M4.07630618,15.0888009 C4.03629256,15.2028592 3.89428931,15.236584 3.76492195,15.1585242 C3.63314775,15.0838748 3.55913758,14.928892 3.6018589,14.8148338 C3.64096996,14.6977441 3.78327406,14.6655349 3.91474741,14.7432158 C4.04682246,14.8182441 4.12203604,14.9747427 4.07630618,15.0888009" id="Fill-53"></path>
                    <path d="M4.55070135,15.5039801 C4.46941114,15.5775283 4.31050005,15.5433711 4.20267761,15.4271264 C4.09118582,15.3111572 4.07029875,15.1560725 4.152718,15.0814224 C4.23654853,15.0078743 4.39066124,15.0423069 4.50243529,15.1582761 C4.61392708,15.2756227 4.63566092,15.4296056 4.55070135,15.5039801" id="Fill-54"></path>
                    <path d="M4.86993821,16.0317536 C4.77308683,16.091001 4.61472174,16.0354422 4.51682332,15.9116451 C4.41997194,15.787848 4.41997194,15.6393837 4.5189174,15.5799058 C4.61707758,15.5204279 4.77308683,15.5739119 4.87229405,15.6967869 C4.96888367,15.8224282 4.96888367,15.971123 4.86993821,16.0317536" id="Fill-55"></path>
                    <path d="M5.41551775,16.5187065 C5.34230867,16.6011767 5.18637998,16.579034 5.07225344,16.466513 C4.9554728,16.3564774 4.92296001,16.2003489 4.99639026,16.1178786 C5.07048404,16.0351825 5.22729744,16.0584549 5.34230867,16.1700721 C5.45820461,16.2798818 5.49359268,16.4371401 5.41551775,16.5187065" id="Fill-56"></path>
                    <path d="M6.13587559,16.9317608 C6.10727404,17.0574789 5.97425727,17.1146234 5.84026099,17.0611999 C5.70646061,17.0061816 5.61889286,16.8589347 5.6459272,16.7318877 C5.67374514,16.6053723 5.80734962,16.5458356 5.9423254,16.6029802 C6.07592988,16.6577326 6.16369353,16.8039164 6.13587559,16.9317608" id="Fill-57"></path>
                    <path d="M6.99565629,16.996839 C6.99893136,17.1351051 6.88719368,17.2497716 6.74887014,17.2519927 C6.60977599,17.2567126 6.49726771,17.1448226 6.4957265,17.0087777 C6.4957265,16.8691234 6.60495971,16.7555675 6.74405386,16.7522358 C6.8823774,16.7483488 6.99565629,16.8594059 6.99565629,16.996839" id="Fill-58"></path>
                    <path d="M7.84856328,16.7690841 C7.86520196,16.9013315 7.76865891,17.0371163 7.63071262,17.0730354 C7.495088,17.1081381 7.36952399,17.0265039 7.35230489,16.895345 C7.33547273,16.7598322 7.43375705,16.6240474 7.56918818,16.5889447 C7.70732795,16.5552026 7.83095723,16.6346598 7.84856328,16.7690841" id="Fill-59"></path>
                </g>
                <g id="Group-3" transform="translate(30.726496, 2.623932)">
                    <path d="M12.0138462,7.17726496 L6.84,7.17726496 C6.70649573,7.17726496 6.5982906,7.28564103 6.5982906,7.4191453 L6.5982906,9.94871795 C6.5982906,10.0822222 6.70649573,10.1909402 6.84,10.1909402 L8.8582906,10.1909402 L8.8582906,13.3336752 C8.8582906,13.3336752 8.40512821,13.4882051 7.15213675,13.4882051 C5.67401709,13.4882051 3.60905983,12.9480342 3.60905983,8.40735043 C3.60905983,3.86547009 5.75931624,3.26803419 7.77794872,3.26803419 C9.52547009,3.26803419 10.2781197,3.57555556 10.757265,3.72393162 C10.9078632,3.77008547 11.0470085,3.62017094 11.0470085,3.48649573 L11.6241026,1.0425641 C11.6241026,0.97982906 11.602906,0.904786325 11.5317949,0.853675214 C11.337265,0.714871795 10.1504274,0.0507692308 7.15213675,0.0507692308 C3.6982906,0.0507692308 0.155213675,1.52017094 0.155213675,8.58444444 C0.155213675,15.6487179 4.21162393,16.7013675 7.62991453,16.7013675 C10.4601709,16.7013675 12.177094,15.4919658 12.177094,15.4919658 C12.2478632,15.4528205 12.2555556,15.3538462 12.2555556,15.3087179 L12.2555556,7.4191453 C12.2555556,7.28564103 12.1473504,7.17726496 12.0138462,7.17726496" id="Fill-3"></path>
                    <path d="M38.6777778,0.897264957 C38.6777778,0.762564103 38.5711111,0.654017094 38.4374359,0.654017094 L35.5242735,0.654017094 C35.3912821,0.654017094 35.2830769,0.762564103 35.2830769,0.897264957 C35.2830769,0.897777778 35.2839316,6.52700855 35.2839316,6.52700855 L30.742906,6.52700855 L30.742906,0.897264957 C30.742906,0.762564103 30.6358974,0.654017094 30.5025641,0.654017094 L27.5895726,0.654017094 C27.457094,0.654017094 27.3488889,0.762564103 27.3488889,0.897264957 L27.3488889,16.1411966 C27.3488889,16.2757265 27.457094,16.3849573 27.5895726,16.3849573 L30.5025641,16.3849573 C30.6358974,16.3849573 30.742906,16.2757265 30.742906,16.1411966 L30.742906,9.62068376 L35.2839316,9.62068376 C35.2839316,9.62068376 35.2758974,16.1406838 35.2758974,16.1411966 C35.2758974,16.2757265 35.3839316,16.3849573 35.517265,16.3849573 L38.437265,16.3849573 C38.5707692,16.3849573 38.6774359,16.2757265 38.6777778,16.1411966 L38.6777778,0.897264957" id="Fill-4"></path>
                    <path d="M17.5111111,2.8974359 C17.5111111,1.84854701 16.6702564,1.0008547 15.6326496,1.0008547 C14.5960684,1.0008547 13.754359,1.84854701 13.754359,2.8974359 C13.754359,3.94547009 14.5960684,4.79555556 15.6326496,4.79555556 C16.6702564,4.79555556 17.5111111,3.94547009 17.5111111,2.8974359" id="Fill-5"></path>
                    <path d="M17.302906,12.9254701 C17.302906,12.5348718 17.302906,5.88888889 17.302906,5.88888889 C17.302906,5.75521368 17.1950427,5.64598291 17.0618803,5.64598291 L14.1577778,5.64598291 C14.0246154,5.64598291 13.9054701,5.7834188 13.9054701,5.91692308 C13.9054701,5.91692308 13.9054701,14.3842735 13.9054701,15.9984615 C13.9054701,16.2947009 14.0900855,16.382906 14.3288889,16.382906 C14.3288889,16.382906 15.568547,16.382906 16.9452991,16.382906 C17.2324786,16.382906 17.302906,16.2418803 17.302906,15.9936752 C17.302906,15.4533333 17.302906,13.3364103 17.302906,12.9254701" id="Fill-6"></path>
                    <path d="M49.7490598,5.66888889 L46.8582906,5.66888889 C46.725812,5.66888889 46.6177778,5.7782906 46.6177778,5.91282051 L46.6177778,13.3871795 C46.6177778,13.3871795 45.8832479,13.9246154 44.8408547,13.9246154 C43.7986325,13.9246154 43.5220513,13.4516239 43.5220513,12.4311111 C43.5220513,11.4090598 43.5220513,5.91282051 43.5220513,5.91282051 C43.5220513,5.7782906 43.414359,5.66888889 43.2815385,5.66888889 L40.3475214,5.66888889 C40.2152137,5.66888889 40.1066667,5.7782906 40.1066667,5.91282051 C40.1066667,5.91282051 40.1066667,9.89316239 40.1066667,12.9244444 C40.1066667,15.9562393 41.7962393,16.6979487 44.1205128,16.6979487 C46.0275214,16.6979487 47.5649573,15.6442735 47.5649573,15.6442735 C47.5649573,15.6442735 47.6381197,16.1996581 47.6712821,16.2652991 C47.7042735,16.3309402 47.7905983,16.3974359 47.8839316,16.3974359 L49.7504274,16.3890598 C49.882735,16.3890598 49.9912821,16.2796581 49.9912821,16.145641 L49.9902564,5.91282051 C49.9902564,5.7782906 49.8823932,5.66888889 49.7490598,5.66888889" id="Fill-7"></path>
                    <path d="M56.5100855,13.9153846 C55.5073504,13.8849573 54.8271795,13.4297436 54.8271795,13.4297436 L54.8271795,8.60239316 C54.8271795,8.60239316 55.4981197,8.19111111 56.3213675,8.11760684 C57.3623932,8.0242735 58.3654701,8.33880342 58.3654701,10.8222222 C58.3654701,13.4408547 57.9128205,13.9576068 56.5100855,13.9153846 Z M57.6502564,5.32649573 C56.0083761,5.32649573 54.8916239,6.05897436 54.8916239,6.05897436 L54.8916239,0.897264957 C54.8916239,0.762564103 54.7839316,0.654017094 54.6512821,0.654017094 L51.7297436,0.654017094 C51.5969231,0.654017094 51.4890598,0.762564103 51.4890598,0.897264957 L51.4890598,16.1411966 C51.4890598,16.2757265 51.5969231,16.3849573 51.7300855,16.3849573 C51.7304274,16.3849573 53.7564103,16.3849573 53.757094,16.3849573 C53.8483761,16.3849573 53.9174359,16.3379487 53.968547,16.2557265 C54.0189744,16.1736752 54.0916239,15.5526496 54.0916239,15.5526496 C54.0916239,15.5526496 55.2861538,16.6847863 57.5475214,16.6847863 C60.2025641,16.6847863 61.7251282,15.3381197 61.7251282,10.6393162 C61.7251282,5.94051282 59.2933333,5.32649573 57.6502564,5.32649573 Z" id="Fill-8"></path>
                    <path d="M25.6755556,5.64461538 L23.4902564,5.64461538 C23.4902564,5.64461538 23.4870085,2.75846154 23.4870085,2.75777778 C23.4870085,2.64837607 23.4305983,2.59384615 23.3042735,2.59384615 L20.3264957,2.59384615 C20.2105983,2.59384615 20.148547,2.64478632 20.148547,2.75606838 L20.148547,5.73931624 C20.148547,5.73931624 18.6562393,6.09965812 18.5552137,6.12854701 C18.4548718,6.15777778 18.3808547,6.25042735 18.3808547,6.36102564 L18.3808547,8.2357265 C18.3808547,8.37059829 18.488547,8.47931624 18.6217094,8.47931624 L20.148547,8.47931624 C20.148547,8.47931624 20.148547,10.44 20.148547,12.9894017 C20.148547,16.3393162 22.4982906,16.6683761 24.0837607,16.6683761 C24.8083761,16.6683761 25.6750427,16.4355556 25.8181197,16.382906 C25.9046154,16.3509402 25.9548718,16.2613675 25.9548718,16.1641026 L25.9574359,14.1018803 C25.9574359,13.9675214 25.8437607,13.8584615 25.7158974,13.8584615 C25.5883761,13.8584615 25.262735,13.9104274 24.9273504,13.9104274 C23.8538462,13.9104274 23.4902564,13.4112821 23.4902564,12.7652991 C23.4902564,12.1196581 23.4900855,8.47931624 23.4900855,8.47931624 L25.6755556,8.47931624 C25.8087179,8.47931624 25.9165812,8.37059829 25.9165812,8.2357265 L25.9165812,5.88752137 C25.9165812,5.75299145 25.8087179,5.64461538 25.6755556,5.64461538" id="Fill-9"></path>
                </g>
            </g>
        </g>
    </g>
</svg>