<svg height="81" viewBox="0 0 101 81" width="101" xmlns="http://www.w3.org/2000/svg"><g fill="none" fill-rule="evenodd"><path d="m78.8905473 29c-8.0479703 0-14.5721393-6.4918711-14.5721393-14.5 0-8.00812887 6.524169-14.5 14.5721393-14.5s14.5721393 6.49187113 14.5721393 14.5c0 8.0081289-6.524169 14.5-14.5721393 14.5zm-10.2487121 51.8310547.0000025-13.883891c-5.4125067 3.8700604-6.7898149 6.0528363-15.3781561 6.0528363-3.4100207-2.8161818-5.4199709-4.9828484-6.0298508-6.5-.5067591-1.2606262-.1717674-3.2606262 1.0049752-6 1.0049751.3333333 2.3956325.3333333 4.1719721 0 11.6856855-2.1928399 17.5870276-8.1372297 17.5870276-17.5 0-5.9387456 5.013403-11.25 12.8134329-11.25 5.4115684 0 9.0716335 2.1777866 11.9336918 8.2313738 3.4604995 7.3193598 5.4780736 20.2603891 5.9972796 40.5933307l.006546.2563502z" fill="#9bc9fd"/><path d="m22.1094527 29c-8.0479703 0-14.57213927-6.4918711-14.57213927-14.5 0-8.00812887 6.52416897-14.5 14.57213927-14.5s14.5721393 6.49187113 14.5721393 14.5c0 8.0081289-6.524169 14.5-14.5721393 14.5zm10.1495029 51.8310547h-32.106921l.00654596-.2563502c.51920598-20.3329416 2.53678037-33.2739709 5.99727982-40.5933307 2.86205835-6.0535872 6.52212342-8.2313738 11.93369182-8.2313738 7.8000299 0 12.8134329 5.3112544 12.8134329 11.25 0 9.3627703 5.9699526 15.0142368 17.5870276 17.5v5.2307976h5.0249127v7.2692024c-8.5883412 0-15.8434656-2.1827759-21.2559723-6.0528363z" fill="#027aff"/></g></svg>